<?xml version="1.0" encoding="UTF-8"?>
<svg version="1.1" xmlns="http://www.w3.org/2000/svg" width="500" height="500">
<path d="M0 0 C5.44867252 4.5684083 10.6852883 9.33197009 15.83203125 14.23828125 C16.64285156 15.00785156 17.45367187 15.77742188 18.2890625 16.5703125 C23.63916659 21.77458752 28.27243768 27.33914606 32.83203125 33.23828125 C33.56808594 34.13417969 34.30414063 35.03007813 35.0625 35.953125 C61.69830168 69.01975644 79.47941911 111.80866593 82.83203125 154.23828125 C82.88842773 154.91294434 82.94482422 155.58760742 83.00292969 156.28271484 C88.66517897 226.99382203 70.51385639 286.22675671 24.83203125 340.23828125 C17.37726267 348.95730883 17.37726267 348.95730883 14.83203125 351.23828125 C14.17203125 351.23828125 13.51203125 351.23828125 12.83203125 351.23828125 C12.83203125 351.89828125 12.83203125 352.55828125 12.83203125 353.23828125 C10.91796875 355.015625 10.91796875 355.015625 8.20703125 357.17578125 C7.20542969 357.97628906 6.20382812 358.77679688 5.171875 359.6015625 C4.35952393 360.24279053 4.35952393 360.24279053 3.53076172 360.89697266 C1.79380449 362.26846489 0.06462488 363.64935388 -1.6640625 365.03125 C-2.85238314 365.97586639 -4.04117797 366.91988659 -5.23046875 367.86328125 C-6.04088623 368.50898071 -6.04088623 368.50898071 -6.86767578 369.16772461 C-48.54259616 401.9705175 -100.36599005 419.02513987 -153.16796875 420.23828125 C-154.09335449 420.26019531 -155.01874023 420.28210938 -155.97216797 420.3046875 C-196.00067326 421.10193574 -231.00746314 411.96550493 -267.2578125 395.54736328 C-269.8121847 394.39832438 -272.37648869 393.27896531 -274.94921875 392.171875 C-285.65920771 387.47784884 -294.87743586 381.30813805 -304.16796875 374.23828125 C-305.13734375 373.50222656 -306.10671875 372.76617187 -307.10546875 372.0078125 C-312.33258478 367.91596073 -317.25852788 363.5234142 -322.13671875 359.0234375 C-324.04478325 357.19382187 -324.04478325 357.19382187 -326.16796875 356.23828125 C-326.16796875 355.57828125 -326.16796875 354.91828125 -326.16796875 354.23828125 C-327.03421875 353.86703125 -327.03421875 353.86703125 -327.91796875 353.48828125 C-330.49736854 352.05528137 -332.22918467 350.45403449 -334.16796875 348.23828125 C-334.16796875 347.57828125 -334.16796875 346.91828125 -334.16796875 346.23828125 C-335.15796875 345.90828125 -336.14796875 345.57828125 -337.16796875 345.23828125 C-337.16796875 344.57828125 -337.16796875 343.91828125 -337.16796875 343.23828125 C-337.82796875 343.23828125 -338.48796875 343.23828125 -339.16796875 343.23828125 C-358.74738725 324.88990403 -377.78515188 296.8235257 -382.16796875 270.23828125 C-383.15796875 269.90828125 -384.14796875 269.57828125 -385.16796875 269.23828125 C-386.46614165 266.84189099 -387.5290344 264.56738496 -388.54296875 262.05078125 C-388.84678467 261.3019165 -389.15060059 260.55305176 -389.46362305 259.78149414 C-410.37946268 205.74844938 -402.38286111 138.54273426 -379.95654297 86.59399414 C-372.49730006 69.78836948 -364.01671065 54.32572553 -352.16796875 40.23828125 C-350.87324148 38.57399105 -349.58134235 36.90749484 -348.29296875 35.23828125 C-343.8849618 29.73054473 -339.04118988 24.63860407 -334.2109375 19.50390625 C-331.87399955 17.01401803 -329.62161864 14.47273147 -327.41796875 11.86328125 C-323.73492131 7.5987 -319.64422198 3.66612486 -315.16796875 0.23828125 C-314.50796875 0.23828125 -313.84796875 0.23828125 -313.16796875 0.23828125 C-313.16796875 -0.42171875 -313.16796875 -1.08171875 -313.16796875 -1.76171875 C-311.76953125 -3.0234375 -311.76953125 -3.0234375 -309.79296875 -4.44921875 C-309.06271484 -4.97829834 -308.33246094 -5.50737793 -307.58007812 -6.05249023 C-306.78408203 -6.61653564 -305.98808594 -7.18058105 -305.16796875 -7.76171875 C-304.35650391 -8.34187744 -303.54503906 -8.92203613 -302.70898438 -9.51977539 C-295.60079422 -14.55289953 -288.31102277 -19.23288123 -280.85595703 -23.73193359 C-279.38169496 -24.63133155 -277.92725071 -25.56305333 -276.4765625 -26.5 C-270.1914921 -30.50712067 -263.52366374 -33.16877088 -256.58837891 -35.81787109 C-253.79228151 -36.90821934 -251.01760966 -38.04555922 -248.2421875 -39.1875 C-224.29568897 -49.01617709 -224.29568897 -49.01617709 -212.16796875 -51.76171875 C-211.19021484 -51.98730469 -210.21246094 -52.21289062 -209.20507812 -52.4453125 C-135.10595834 -68.81347627 -57.87201171 -47.89286273 0 0 Z M-261.16796875 8.23828125 C-261.16796875 124.06828125 -261.16796875 239.89828125 -261.16796875 359.23828125 C-155.70006403 368.48638746 -155.70006403 368.48638746 -51.16796875 338.23828125 C-50.46929687 337.79613281 -49.770625 337.35398437 -49.05078125 336.8984375 C-45.03549996 334.24835185 -42.05268644 331.07612303 -38.98046875 327.38671875 C-37.77475189 325.95752851 -36.52366139 324.56539574 -35.23046875 323.21484375 C-18.54278591 305.67973951 -13.05844959 281.87061177 -13.16796875 258.23828125 C-13.94020103 238.14002652 -18.7376736 219.35461631 -31.16796875 203.23828125 C-31.70164062 202.53832031 -32.2353125 201.83835937 -32.78515625 201.1171875 C-45.86299499 185.06711268 -67.32863546 176.89796409 -87.16796875 173.23828125 C-83.86188302 170.54355428 -80.48300092 168.0448767 -76.98046875 165.61328125 C-58.58846767 152.22152811 -49.02654033 134.29968983 -45.16796875 112.23828125 C-41.64347288 88.35854475 -45.94660586 62.53130138 -60.16796875 42.73828125 C-61.14396935 41.55146452 -62.14436807 40.38429728 -63.16796875 39.23828125 C-64.00521484 38.26375 -64.00521484 38.26375 -64.859375 37.26953125 C-70.42920592 31.22295071 -77.04676526 27.24827933 -84.16796875 23.23828125 C-85.00328125 22.76390625 -85.83859375 22.28953125 -86.69921875 21.80078125 C-97.14211135 16.23123853 -108.30047595 13.19492136 -119.85546875 10.98828125 C-120.67821289 10.82513428 -121.50095703 10.6619873 -122.34863281 10.49389648 C-164.39016641 3.02170185 -230.59395639 8.23828125 -261.16796875 8.23828125 Z " fill="#862B21" transform="translate(408.16796875,68.76171875)"/>
<path d="M0 0 C60.30941704 0 60.30941704 0 75 14 C82.99305197 21.99305197 85.20882863 32.22259675 85.25 43.1875 C85.23420226 53.77537227 83.51338412 62.11264654 76 70 C55.9406113 88.28197451 24.31343826 84 0 84 C0 56.28 0 28.56 0 0 Z " fill="#872B20" transform="translate(226,283)"/>
<path d="M0 0 C38.10046095 0 38.10046095 0 52.1640625 12.05078125 C59.55070406 19.89319431 61.46114931 29.39185925 61.25 39.84375 C60.43539783 50.12810234 57.45804519 59.02170371 49.875 66.1875 C42.60927527 71.87640787 34.792311 74.32100895 25.8125 75.8125 C24.71953613 75.99848755 24.71953613 75.99848755 23.60449219 76.18823242 C15.60623218 77.3542873 8.30784268 77 0 77 C0 51.59 0 26.18 0 0 Z " fill="#842B21" transform="translate(226,138)"/>
<path d="M0 0 C22.16632746 25.57653169 33.37354276 66.76037503 36 100 C36.05639648 100.67466309 36.11279297 101.34932617 36.17089844 102.04443359 C41.83314772 172.75554078 23.68182514 231.98847546 -22 286 C-29.45476858 294.71902758 -29.45476858 294.71902758 -32 297 C-32.66 297 -33.32 297 -34 297 C-34 297.66 -34 298.32 -34 299 C-35.9140625 300.77734375 -35.9140625 300.77734375 -38.625 302.9375 C-39.62660156 303.73800781 -40.62820313 304.53851563 -41.66015625 305.36328125 C-42.47250732 306.00450928 -42.47250732 306.00450928 -43.30126953 306.65869141 C-45.03822676 308.03018364 -46.76740637 309.41107263 -48.49609375 310.79296875 C-49.68441439 311.73758514 -50.87320922 312.68160534 -52.0625 313.625 C-52.87291748 314.27069946 -52.87291748 314.27069946 -53.69970703 314.92944336 C-68.83382345 326.84167455 -85.49218162 336.75826175 -103 344.75 C-103.91297852 345.16805908 -104.82595703 345.58611816 -105.76660156 346.0168457 C-110.1728764 347.96799567 -114.15085898 349.52146635 -119 350 C-119 349.34 -119 348.68 -119 348 C-118.43410156 347.80664062 -117.86820312 347.61328125 -117.28515625 347.4140625 C-116.55167969 347.15367187 -115.81820313 346.89328125 -115.0625 346.625 C-114.33160156 346.36976563 -113.60070312 346.11453125 -112.84765625 345.8515625 C-110.81317884 345.14728587 -110.81317884 345.14728587 -110 343 C-106.70854057 341.64311264 -103.36369637 340.492886 -100.00390625 339.31640625 C-96.75281351 338.2136114 -96.75281351 338.2136114 -95 335 C-91.375 333.8125 -91.375 333.8125 -88 333 C-87.67 330.69 -87.34 328.38 -87 326 C-83.33333333 326 -79.66666667 326 -76 326 C-74.02766658 324.79406981 -74.02766658 324.79406981 -72.0625 323.1875 C-71.39347656 322.66542969 -70.72445312 322.14335937 -70.03515625 321.60546875 C-69.36355469 321.07566406 -68.69195312 320.54585938 -68 320 C-67.29230469 319.5153125 -66.58460938 319.030625 -65.85546875 318.53125 C-63.84351699 316.87086034 -63.1606322 315.72567534 -62.25 313.3125 C-61.63125 311.6728125 -61.63125 311.6728125 -61 310 C-60.40832031 309.98582031 -59.81664062 309.97164063 -59.20703125 309.95703125 C-54.74434335 309.68766836 -52.56924796 309.46251397 -49 306.5625 C-47.01298758 304.19078303 -47.01298758 304.19078303 -46 302 C-44.824375 301.5978125 -44.824375 301.5978125 -43.625 301.1875 C-40.80433407 300.21147732 -40.80433407 300.21147732 -39.5 297.5 C-38 295 -38 295 -35.5 294.0625 C-32.00431333 292.57683317 -31.60063788 290.34046165 -30 287 C-28.125 285.9375 -28.125 285.9375 -26 285 C-25.154375 284.154375 -24.30875 283.30875 -23.4375 282.4375 C-21 280 -21 280 -18 279 C-16.58719659 276.17439317 -15.82784997 273.36519678 -15 270.3125 C-14 267 -14 267 -12 265 C-12 264.34 -12 263.68 -12 263 C-10.390625 261.6328125 -10.390625 261.6328125 -8.25 260.125 C-2.57133131 255.9759727 0.6787489 252.16803775 4 246 C4.66 246 5.32 246 6 246 C6 245.34 6 244.68 6 244 C5.34 244 4.68 244 4 244 C4.33 242.35 4.66 240.7 5 239 C6.65 238.67 8.3 238.34 10 238 C9.91878906 237.14019531 9.83757812 236.28039062 9.75390625 235.39453125 C10.06260768 231.13641159 11.51620787 229.17262875 13.9375 225.6875 C16.98593003 221.10440619 18.68017113 217.55931092 18.79296875 212.01171875 C19.15943867 208.4507375 21.05766902 205.94482439 23 203 C23.66 203 24.32 203 25 203 C25.06058594 202.33613281 25.12117187 201.67226563 25.18359375 200.98828125 C25.6003664 196.59613868 26.08365671 192.31990409 27 188 C27 187.01 27 186.02 27 185 C26.34 184.34 25.68 183.68 25 183 C25.66 182.34 26.32 181.68 27 181 C27.83333333 179.08333333 27.83333333 179.08333333 28 177 C27.34 176.01 26.68 175.02 26 174 C27.32 173.67 28.64 173.34 30 173 C30.19551338 171.39679026 30.38111983 169.79237014 30.5625 168.1875 C30.66691406 167.29417969 30.77132812 166.40085937 30.87890625 165.48046875 C31.15658709 162.86624428 31.15658709 162.86624428 30 160 C30.2676786 156.38633885 30.509599 153.75603488 32.5 150.6875 C34.7252798 146.70054036 34.96929812 142.52852726 35 138 C34.67 137.01 34.34 136.02 34 135 C32.01954441 134.33820153 32.01954441 134.33820153 30 134 C29 133 29 133 28.90234375 131.15234375 C28.93489583 129.1015625 28.96744792 127.05078125 29 125 C29.639375 124.773125 30.27875 124.54625 30.9375 124.3125 C33.17488811 123.19671257 33.17488811 123.19671257 33.65625 120.96875 C34.11716496 116.98812078 33.8532913 113.17501744 33.5625 109.1875 C33.51029297 108.39923828 33.45808594 107.61097656 33.40429688 106.79882812 C33.27540731 104.86548471 33.13850506 102.93267836 33 101 C32.01 101.495 32.01 101.495 31 102 C30.98018066 101.44538086 30.96036133 100.89076172 30.93994141 100.31933594 C30.84442349 97.79576307 30.73485433 95.27298776 30.625 92.75 C30.57859375 91.44095703 30.57859375 91.44095703 30.53125 90.10546875 C30.47324219 88.83896484 30.47324219 88.83896484 30.4140625 87.546875 C30.3826416 86.77182617 30.3512207 85.99677734 30.31884766 85.19824219 C29.96870744 82.78425866 29.1036785 81.15646054 28 79 C28 78.01 28 77.02 28 76 C27.34 75.34 26.68 74.68 26 74 C25.65625 71.53125 25.65625 71.53125 25.5 68.5 C24.93609167 58.97754195 24.93609167 58.97754195 22 50 C22.33 49.34 22.66 48.68 23 48 C21.35 47.67 19.7 47.34 18 47 C18.05800781 46.00226563 18.11601562 45.00453125 18.17578125 43.9765625 C17.98436725 39.64635244 16.87353648 36.29712742 15.1875 32.375 C14.92646484 31.73304688 14.66542969 31.09109375 14.39648438 30.4296875 C13.20385317 27.55559354 11.92748669 24.88164494 10.30078125 22.2265625 C9 20 9 20 9 17 C7.515 17.495 7.515 17.495 6 18 C6 17.01 6 16.02 6 15 C5.175 14.236875 4.35 13.47375 3.5 12.6875 C1 10 1 10 0.6875 6.6875 C0.790625 5.800625 0.89375 4.91375 1 4 C0.01 3.505 0.01 3.505 -1 3 C-0.67 2.01 -0.34 1.02 0 0 Z " fill="#72383A" transform="translate(455,123)"/>
<path d="M0 0 C22.16632746 25.57653169 33.37354276 66.76037503 36 100 C36.05639648 100.67466309 36.11279297 101.34932617 36.17089844 102.04443359 C37.87599068 123.33790797 37.67866332 144.80704607 35 166 C34.91459961 166.69947754 34.82919922 167.39895508 34.74121094 168.11962891 C33.43671285 178.56328715 33.43671285 178.56328715 31 181 C29.7475082 177.24252461 30.5566972 174.55880647 31.375 170.8125 C32.86420333 163.57039221 33.48576 156.51317323 33.7890625 149.1328125 C34 146 34 146 35 144 C35.14375422 140.62177584 35.07536348 138.22609045 34 135 C32.01954441 134.33820153 32.01954441 134.33820153 30 134 C29 133 29 133 28.90234375 131.15234375 C28.93489583 129.1015625 28.96744792 127.05078125 29 125 C29.639375 124.773125 30.27875 124.54625 30.9375 124.3125 C33.17488811 123.19671257 33.17488811 123.19671257 33.65625 120.96875 C34.11716496 116.98812078 33.8532913 113.17501744 33.5625 109.1875 C33.48418945 108.00510742 33.48418945 108.00510742 33.40429688 106.79882812 C33.27540731 104.86548471 33.13850506 102.93267836 33 101 C32.01 101.495 32.01 101.495 31 102 C30.98018066 101.44538086 30.96036133 100.89076172 30.93994141 100.31933594 C30.84442349 97.79576307 30.73485433 95.27298776 30.625 92.75 C30.5940625 91.87730469 30.563125 91.00460938 30.53125 90.10546875 C30.49257813 89.26113281 30.45390625 88.41679687 30.4140625 87.546875 C30.3826416 86.77182617 30.3512207 85.99677734 30.31884766 85.19824219 C29.96870744 82.78425866 29.1036785 81.15646054 28 79 C28 78.01 28 77.02 28 76 C27.34 75.34 26.68 74.68 26 74 C25.65625 71.53125 25.65625 71.53125 25.5 68.5 C24.93609167 58.97754195 24.93609167 58.97754195 22 50 C22.33 49.34 22.66 48.68 23 48 C21.35 47.67 19.7 47.34 18 47 C18.05800781 46.00226563 18.11601562 45.00453125 18.17578125 43.9765625 C17.98436725 39.64635244 16.87353648 36.29712742 15.1875 32.375 C14.92646484 31.73304688 14.66542969 31.09109375 14.39648438 30.4296875 C13.20385317 27.55559354 11.92748669 24.88164494 10.30078125 22.2265625 C9 20 9 20 9 17 C8.01 17.33 7.02 17.66 6 18 C6 17.01 6 16.02 6 15 C5.175 14.236875 4.35 13.47375 3.5 12.6875 C1 10 1 10 0.6875 6.6875 C0.790625 5.800625 0.89375 4.91375 1 4 C0.34 3.67 -0.32 3.34 -1 3 C-0.67 2.01 -0.34 1.02 0 0 Z " fill="#824745" transform="translate(455,123)"/>
<path d="M0 0 C44.17913319 4.15922953 93.76454241 40.9517739 121.74609375 74.06640625 C123 76 123 76 123 79 C121.515 78.505 121.515 78.505 120 78 C119.67 76.35 119.34 74.7 119 73 C117.02 73 115.04 73 113 73 C112.67 71.02 112.34 69.04 112 67 C110.515 66.505 110.515 66.505 109 66 C108.71125 65.360625 108.4225 64.72125 108.125 64.0625 C106.608641 61.2825085 104.88053053 61.10789636 102 60 C101.67 59.01 101.34 58.02 101 57 C100.34 56.67 99.68 56.34 99 56 C98.38125 55.360625 97.7625 54.72125 97.125 54.0625 C95.13216036 52.12827329 93.52696647 51.08298563 91 50 C91 49.34 91 48.68 91 48 C89.515 47.505 89.515 47.505 88 47 C88 46.34 88 45.68 88 45 C86.1746875 44.6596875 86.1746875 44.6596875 84.3125 44.3125 C80.01475092 43.23996439 77.81989772 41.48340306 75 38 C74.649375 37.2575 74.29875 36.515 73.9375 35.75 C73.1346633 33.77905978 73.1346633 33.77905978 70.875 33.25 C70.25625 33.1675 69.6375 33.085 69 33 C69 32.34 69 31.68 69 31 C68.443125 30.896875 67.88625 30.79375 67.3125 30.6875 C65 30 65 30 62.4375 28.4375 C60.04095169 26.74600749 60.04095169 26.74600749 57 27 C56.01 26.67 55.02 26.34 54 26 C53.67 26.66 53.34 27.32 53 28 C51.0625 27.25 51.0625 27.25 49 26 C48.25 23.875 48.25 23.875 48 22 C47.34 22 46.68 22 46 22 C46 21.34 46 20.68 46 20 C43.69 20 41.38 20 39 20 C39 19.01 39 18.02 39 17 C38.01 17.33 37.02 17.66 36 18 C35.87625 17.071875 35.7525 16.14375 35.625 15.1875 C34.38815645 11.96967473 34.38815645 11.96967473 32.23828125 11.14453125 C30.58635942 10.68176877 28.9246483 10.25343115 27.2578125 9.84765625 C23.17904591 8.78639444 19.27178043 7.37395804 15.3125 5.9375 C10.24652559 4.10387053 5.19755609 2.42370803 0 1 C0 0.67 0 0.34 0 0 Z " fill="#853F39" transform="translate(313,20)"/>
<path d="M0 0 C0.97928623 3.16440999 0.99906593 5.65684072 0.625 8.9375 C0.52574219 9.8140625 0.42648438 10.690625 0.32421875 11.59375 C-0.01205218 14.08944753 -0.47755859 16.53706194 -1 19 C-1 19.99 -1 20.98 -1 22 C-1.66 22 -2.32 22 -3 22 C-2.67 24.31 -2.34 26.62 -2 29 C-2.66 29.33 -3.32 29.66 -4 30 C-4.33 37.59 -4.66 45.18 -5 53 C-4.01 53.33 -3.02 53.66 -2 54 C-2.99 56.475 -2.99 56.475 -4 59 C-4.66 59 -5.32 59 -6 59 C-6 61.64 -6 64.28 -6 67 C-5.34 67 -4.68 67 -4 67 C-3.15280928 71.7066151 -3.16821957 75.32123509 -4 80 C-3.70955086 81.34332728 -3.39044206 82.68225804 -3 84 C-3.495 84.495 -3.495 84.495 -4 85 C-4.09909302 87.33160055 -4.12970504 89.66629942 -4.125 92 C-4.12757812 93.27875 -4.13015625 94.5575 -4.1328125 95.875 C-4.35860893 98.86687244 -4.35860893 98.86687244 -3 100 C-3 101.66666667 -3 103.33333333 -3 105 C-2.70630173 106.34262065 -2.3721042 107.67696283 -2 109 C-1.65846063 110.66500443 -1.32550502 112.33178677 -1 114 C-0.690625 115.3303125 -0.690625 115.3303125 -0.375 116.6875 C-0 119 -0 119 -1 121 C-0.34 121.33 0.32 121.66 1 122 C1 124.31 1 126.62 1 129 C0.34 128.67 -0.32 128.34 -1 128 C-1.77581329 125.30586712 -2.42333399 122.67561429 -3 119.9375 C-3.17442627 119.1232959 -3.34885254 118.3090918 -3.52856445 117.47021484 C-11.33262539 79.91294356 -10.99565287 36.8382279 0 0 Z " fill="#813A32" transform="translate(16,189)"/>
<path d="M0 0 C12.48976306 14.41126506 20.15784295 34.64601412 26.1875 52.5 C26.46650146 53.31637939 26.74550293 54.13275879 27.03295898 54.97387695 C28.59645111 59.84917989 29.34889573 64.45126814 29.74780273 69.54907227 C29.99353385 71.93716003 30.43393541 74.16324167 30.9921875 76.49609375 C32.13655356 81.31877929 32.65853251 86.13400337 33.125 91.0625 C33.21136719 91.92810547 33.29773438 92.79371094 33.38671875 93.68554688 C33.59599029 95.78988844 33.79869668 97.89488124 34 100 C33.01 100.66 32.02 101.32 31 102 C30.98018066 101.44538086 30.96036133 100.89076172 30.93994141 100.31933594 C30.84442349 97.79576307 30.73485433 95.27298776 30.625 92.75 C30.5940625 91.87730469 30.563125 91.00460938 30.53125 90.10546875 C30.49257813 89.26113281 30.45390625 88.41679687 30.4140625 87.546875 C30.3826416 86.77182617 30.3512207 85.99677734 30.31884766 85.19824219 C29.96870744 82.78425866 29.1036785 81.15646054 28 79 C28 78.01 28 77.02 28 76 C27.34 75.34 26.68 74.68 26 74 C25.65625 71.53125 25.65625 71.53125 25.5 68.5 C24.93609167 58.97754195 24.93609167 58.97754195 22 50 C22.33 49.34 22.66 48.68 23 48 C21.35 47.67 19.7 47.34 18 47 C18.05800781 46.00226563 18.11601562 45.00453125 18.17578125 43.9765625 C17.98436725 39.64635244 16.87353648 36.29712742 15.1875 32.375 C14.92646484 31.73304688 14.66542969 31.09109375 14.39648438 30.4296875 C13.20385317 27.55559354 11.92748669 24.88164494 10.30078125 22.2265625 C9 20 9 20 9 17 C8.01 17.33 7.02 17.66 6 18 C6 17.01 6 16.02 6 15 C5.175 14.236875 4.35 13.47375 3.5 12.6875 C1 10 1 10 0.6875 6.6875 C0.790625 5.800625 0.89375 4.91375 1 4 C0.34 3.67 -0.32 3.34 -1 3 C-0.67 2.01 -0.34 1.02 0 0 Z " fill="#863D39" transform="translate(455,123)"/>
<path d="M0 0 C1.08635049 3.25905148 0.9299863 4.82573532 0.4765625 8.18359375 C0.3425 9.19357422 0.2084375 10.20355469 0.0703125 11.24414062 C-0.07664062 12.29794922 -0.22359375 13.35175781 -0.375 14.4375 C-0.51421875 15.48744141 -0.6534375 16.53738281 -0.796875 17.61914062 C-1.87233092 25.57852901 -1.87233092 25.57852901 -2.61181641 28.01977539 C-3.14740455 30.07793449 -3.14740455 30.07793449 -2.49975586 32.44018555 C-1.93031893 35.35691551 -2.25623081 37.0967797 -3.00390625 39.95703125 C-3.2467334 40.89667725 -3.48956055 41.83632324 -3.73974609 42.80444336 C-4.01125488 43.79710205 -4.28276367 44.78976074 -4.5625 45.8125 C-4.83916504 46.84060791 -5.11583008 47.86871582 -5.40087891 48.92797852 C-9.40616749 63.47583185 -15.00589077 76.6508372 -22 90 C-22.33 89.01 -22.66 88.02 -23 87 C-22.04842899 85.40272009 -21.09345328 83.80736677 -20.12109375 82.22265625 C-17.33928983 76.7075119 -16.2616194 70.27982624 -15.5625 64.1875 C-14.83843976 60.08449197 -13.21954213 57.50830853 -11 54 C-10.34 54 -9.68 54 -9 54 C-8.93941406 53.33613281 -8.87882812 52.67226563 -8.81640625 51.98828125 C-8.3996336 47.59613868 -7.91634329 43.31990409 -7 39 C-7 38.01 -7 37.02 -7 36 C-7.66 35.34 -8.32 34.68 -9 34 C-8.34 33.34 -7.68 32.68 -7 32 C-6.16666667 30.08333333 -6.16666667 30.08333333 -6 28 C-6.66 27.01 -7.32 26.02 -8 25 C-6.68 24.67 -5.36 24.34 -4 24 C-3.80448662 22.39679026 -3.61888017 20.79237014 -3.4375 19.1875 C-3.33308594 18.29417969 -3.22867187 17.40085937 -3.12109375 16.48046875 C-2.84341291 13.86624428 -2.84341291 13.86624428 -4 11 C-3.66643139 6.4134316 -3.15277249 3.42692662 0 0 Z " fill="#764141" transform="translate(489,272)"/>
<path d="M0 0 C0 4.65725706 -1.85361469 8.56701836 -4.75 12.1875 C-5.1625 12.785625 -5.575 13.38375 -6 14 C-5.7525 14.99 -5.7525 14.99 -5.5 16 C-5.2525 16.99 -5.2525 16.99 -5 18 C-5.45375 18.598125 -5.9075 19.19625 -6.375 19.8125 C-8.56251452 22.75723108 -8.65426745 25.40438147 -9 29 C-9.99 29 -10.98 29 -12 29 C-12.33 29.99 -12.66 30.98 -13 32 C-14.32 32 -15.64 32 -17 32 C-16.87625 33.11375 -16.87625 33.11375 -16.75 34.25 C-17.07403732 37.81441057 -18.4134713 38.64861027 -21 41 C-21.33 41.99 -21.66 42.98 -22 44 C-22.66 44 -23.32 44 -24 44 C-24 44.99 -24 45.98 -24 47 C-24.66 47 -25.32 47 -26 47 C-23.97483355 40.11317619 -21.13023453 33.9451961 -17.75 27.625 C-17.26128418 26.70323975 -16.77256836 25.78147949 -16.26904297 24.83178711 C-11.54951219 16.01322473 -6.68673107 7.49724393 0 0 Z " fill="#8A3025" transform="translate(53,113)"/>
<path d="M0 0 C5.63470383 -0.5497272 8.38987758 1.04952165 13 4 C13.33 3.34 13.66 2.68 14 2 C14.61875 2.33 15.2375 2.66 15.875 3 C17.91018344 4.14193235 17.91018344 4.14193235 20 4 C20 4.99 20 5.98 20 7 C20.66 7 21.32 7 22 7 C22 7.66 22 8.32 22 9 C22.89203125 9.19335938 23.7840625 9.38671875 24.703125 9.5859375 C25.87359375 9.84632813 27.0440625 10.10671875 28.25 10.375 C29.99023438 10.75785156 29.99023438 10.75785156 31.765625 11.1484375 C35 12 35 12 37.2890625 13.15234375 C37.85367188 13.43207031 38.41828125 13.71179688 39 14 C41.15017528 13.25827123 41.15017528 13.25827123 43 12 C43.66 11.67 44.32 11.34 45 11 C45.495 12.4540625 45.495 12.4540625 46 13.9375 C47.59715067 17.09229088 47.59715067 17.09229088 49.875 17.5859375 C51.26673068 17.73432055 52.66398724 17.83890858 54.0625 17.89453125 C56 18 56 18 59 19 C58.67 19.66 58.34 20.32 58 21 C52.03747775 20.40170814 46.54524076 19.22975079 40.8125 17.5 C39.9568042 17.24299316 39.1011084 16.98598633 38.21948242 16.72119141 C28.1572312 13.58307764 18.59604624 9.3263597 9 5 C7.2960177 4.24118791 5.59160986 3.48333048 3.88671875 2.7265625 C3.13994873 2.39479004 2.39317871 2.06301758 1.6237793 1.72119141 C1.08793213 1.48319824 0.55208496 1.24520508 0 1 C0 0.67 0 0.34 0 0 Z " fill="#6A302D" transform="translate(138,462)"/>
<path d="M0 0 C20.35554716 -0.52358946 40.36805519 -0.50853038 60.5625 2.375 C61.34668304 2.48605072 62.13086609 2.59710144 62.93881226 2.71151733 C70.09394282 3.74388901 77.07229213 4.90426959 84 7 C83.67 7.66 83.34 8.32 83 9 C81.24929483 8.88529863 79.49942464 8.75780972 77.75 8.625 C76.77546875 8.55539063 75.8009375 8.48578125 74.796875 8.4140625 C72 8 72 8 70.10766602 7.01367188 C67.80023405 5.90392352 66.02106543 5.60834146 63.48046875 5.3671875 C62.62259766 5.28339844 61.76472656 5.19960938 60.88085938 5.11328125 C59.99205078 5.03464844 59.10324219 4.95601562 58.1875 4.875 C57.31029297 4.78863281 56.43308594 4.70226562 55.52929688 4.61328125 C51.66978877 4.24955797 47.86631884 3.95357421 43.98828125 4.0078125 C41 4 41 4 39 3 C26.14919685 1.29915841 12.93767612 1.45052259 0 1 C0 0.67 0 0.34 0 0 Z " fill="#7D3E38" transform="translate(228,12)"/>
<path d="M0 0 C1.32 0 2.64 0 4 0 C5.0064275 1.66279327 6.00585407 3.32983484 7 5 C9.57099402 6.34689915 9.57099402 6.34689915 12 7 C12 7.66 12 8.32 12 9 C12.7425 9.0825 13.485 9.165 14.25 9.25 C17.54302595 10.14809799 18.85976788 11.38416074 21 14 C21 14.66 21 15.32 21 16 C21.86625 16.0928125 21.86625 16.0928125 22.75 16.1875 C25.86139925 17.31106084 26.96156428 19.45195535 29 22 C31.12946603 22.86965506 31.12946603 22.86965506 33 23 C33 23.66 33 24.32 33 25 C33.66 25 34.32 25 35 25 C35 25.66 35 26.32 35 27 C36.32 27.66 37.64 28.32 39 29 C35.73863157 29 35.12802908 28.65731588 32.55859375 26.875 C31.89746582 26.4197998 31.23633789 25.96459961 30.55517578 25.49560547 C29.50692627 24.75528076 29.50692627 24.75528076 28.4375 24 C27.71804199 23.49742676 26.99858398 22.99485352 26.25732422 22.47705078 C16.99466491 15.9547248 8.13110167 8.90619885 0 1 C0 0.67 0 0.34 0 0 Z " fill="#6B2727" transform="translate(84,425)"/>
<path d="M0 0 C1.9375 0.125 1.9375 0.125 4 1 C5.375 3.1875 5.375 3.1875 6 6 C5.1875 9 5.1875 9 4 12 C3.20318682 14.64184541 3.20318682 14.64184541 3 17 C3.66 17.66 4.32 18.32 5 19 C8 25.34615385 8 25.34615385 8 29 C5 28 5 28 3.90234375 25.99609375 C0.75074174 17.63860663 -1.85204068 10.05540905 -1 1 C-0.67 0.67 -0.34 0.34 0 0 Z " fill="#773230" transform="translate(28,334)"/>
<path d="M0 0 C2.64 0 5.28 0 8 0 C7.75 1.875 7.75 1.875 7 4 C4.06004981 6.02755186 2.72295997 6 -1 6 C-1 6.99 -1 7.98 -1 9 C-3.60101286 9.86500888 -6.20506411 10.71726928 -8.8125 11.5625 C-9.55048828 11.80935547 -10.28847656 12.05621094 -11.04882812 12.31054688 C-16.66015625 14.11328125 -16.66015625 14.11328125 -20 13 C-19.34 12.01 -18.68 11.02 -18 10 C-15.96686847 9.74182457 -13.93217026 9.48851411 -11.890625 9.30859375 C-9.41370716 8.90430344 -8.5867235 7.88895655 -7 6 C-6.154375 5.690625 -5.30875 5.38125 -4.4375 5.0625 C-1.85128305 4.21070839 -1.85128305 4.21070839 -0.6875 1.875 C-0.460625 1.25625 -0.23375 0.6375 0 0 Z " fill="#772822" transform="translate(337,465)"/>
<path d="M0 0 C1.08635049 3.25905148 0.9299863 4.82573532 0.4765625 8.18359375 C0.3425 9.19357422 0.2084375 10.20355469 0.0703125 11.24414062 C-0.07664062 12.29794922 -0.22359375 13.35175781 -0.375 14.4375 C-0.51421875 15.48744141 -0.6534375 16.53738281 -0.796875 17.61914062 C-1.85678078 25.46344333 -1.85678078 25.46344333 -2.57666016 28.16040039 C-3.14681004 30.6379548 -2.60924512 32.56301952 -2 35 C-2.66 35 -3.32 35 -4 35 C-4 35.66 -4 36.32 -4 37 C-5.65 36.34 -7.3 35.68 -9 35 C-8.690625 34.401875 -8.38125 33.80375 -8.0625 33.1875 C-6.89790296 30.91043228 -6.89790296 30.91043228 -6 28 C-6.66 27.01 -7.32 26.02 -8 25 C-6.68 24.67 -5.36 24.34 -4 24 C-3.80448662 22.39679026 -3.61888017 20.79237014 -3.4375 19.1875 C-3.33308594 18.29417969 -3.22867187 17.40085937 -3.12109375 16.48046875 C-2.84341291 13.86624428 -2.84341291 13.86624428 -4 11 C-3.66643139 6.4134316 -3.15277249 3.42692662 0 0 Z " fill="#823733" transform="translate(489,272)"/>
<path d="M0 0 C22.44 0 44.88 0 68 0 C68 0.33 68 0.66 68 1 C14.13464609 9.42309739 14.13464609 9.42309739 0 0 Z " fill="#6D2E2D" transform="translate(213,486)"/>
<path d="M0 0 C0.66 0.33 1.32 0.66 2 1 C-1.38099467 5.75843694 -1.38099467 5.75843694 -4.5625 7 C-7.74161818 8.30425361 -8.31959717 10.09748603 -10 13 C-10.99 13 -11.98 13 -13 13 C-13.33 13.66 -13.66 14.32 -14 15 C-14.66 14.67 -15.32 14.34 -16 14 C-16.33 14.99 -16.66 15.98 -17 17 C-21.45714286 21 -21.45714286 21 -24 21 C-24.66 23.31 -25.32 25.62 -26 28 C-27.65 28 -29.3 28 -31 28 C-31 28.66 -31 29.32 -31 30 C-31.66 29.67 -32.32 29.34 -33 29 C-28.1672447 23.15718331 -23.03874514 17.62437509 -17 13 C-16.34 13 -15.68 13 -15 13 C-15 12.34 -15 11.68 -15 11 C-13.62304688 9.76318359 -13.62304688 9.76318359 -11.71875 8.3984375 C-11.04199219 7.90859375 -10.36523438 7.41875 -9.66796875 6.9140625 C-8.95253906 6.40617187 -8.23710938 5.89828125 -7.5 5.375 C-6.78457031 4.859375 -6.06914063 4.34375 -5.33203125 3.8125 C-3.55879571 2.53577041 -1.78140052 1.26529973 0 0 Z " fill="#793B30" transform="translate(110,56)"/>
<path d="M0 0 C0.33 0 0.66 0 1 0 C1.14285714 8.57142857 1.14285714 8.57142857 0 12 C0.66 12 1.32 12 2 12 C1.67 13.32 1.34 14.64 1 16 C0.34 16 -0.32 16 -1 16 C-1.33 17.32 -1.66 18.64 -2 20 C-3.32 20 -4.64 20 -6 20 C-5.67 20.99 -5.34 21.98 -5 23 C-5.9375 25.1875 -5.9375 25.1875 -7 27 C-7.66 27 -8.32 27 -9 27 C-7.71011592 20.49194848 -5.8622531 14.57980187 -3.375 8.4375 C-3.05015625 7.61958984 -2.7253125 6.80167969 -2.390625 5.95898438 C-1.59978204 3.97024694 -0.80075781 1.98476601 0 0 Z " fill="#903528" transform="translate(26,161)"/>
<path d="M0 0 C3.02425422 0.32231281 4.01129684 1.01149893 6.18359375 3.22265625 C18 18.11091854 18 18.11091854 18 24 C14.18525692 22.54715104 13.07195096 20.83868159 11.375 17.1875 C10.97023438 16.33542969 10.56546875 15.48335937 10.1484375 14.60546875 C9.36542326 12.82903849 8.64201973 11.02542254 7.97265625 9.203125 C7.65167969 8.47609375 7.33070313 7.7490625 7 7 C6.360625 6.855625 5.72125 6.71125 5.0625 6.5625 C4.381875 6.376875 3.70125 6.19125 3 6 C1.25 2.9375 1.25 2.9375 0 0 Z " fill="#833E3C" transform="translate(436,100)"/>
<path d="M0 0 C6.55012853 0.75578406 6.55012853 0.75578406 9.1875 2.1875 C10.0846875 2.5896875 10.0846875 2.5896875 11 3 C13.15017528 2.25827123 13.15017528 2.25827123 15 1 C15.66 0.67 16.32 0.34 17 0 C17.33 0.969375 17.66 1.93875 18 2.9375 C19.59715067 6.09229088 19.59715067 6.09229088 21.875 6.5859375 C23.26673068 6.73432055 24.66398724 6.83890858 26.0625 6.89453125 C28 7 28 7 31 8 C30.67 8.66 30.34 9.32 30 10 C23.6158286 9.38985775 17.75886418 7.97146425 11.625 6.125 C10.72394531 5.86847656 9.82289063 5.61195313 8.89453125 5.34765625 C7.60482422 4.96287109 7.60482422 4.96287109 6.2890625 4.5703125 C5.51256348 4.34102051 4.73606445 4.11172852 3.93603516 3.87548828 C2 3 2 3 0 0 Z " fill="#77312F" transform="translate(166,473)"/>
<path d="M0 0 C2 1 4 2 6 3 C6 3.66 6 4.32 6 5 C6.66 5 7.32 5 8 5 C8.33 6.98 8.66 8.96 9 11 C8.443125 10.608125 7.88625 10.21625 7.3125 9.8125 C6.549375 9.544375 5.78625 9.27625 5 9 C2.25167846 10.28184562 2.25167846 10.28184562 0 12 C-0.99 10.35 -1.98 8.7 -3 7 C-2.34 7 -1.68 7 -1 7 C-0.67 4.69 -0.34 2.38 0 0 Z " fill="#903327" transform="translate(20,181)"/>
<path d="M0 0 C-0.8125 2.4375 -0.8125 2.4375 -2 5 C-5 6 -5 6 -7.375 6.375 C-10.3508187 7.08352826 -12.41701647 8.39436159 -15 10 C-15.66 10 -16.32 10 -17 10 C-17 10.66 -17 11.32 -17 12 C-19.08203125 13.54296875 -19.08203125 13.54296875 -21.8125 15.1875 C-23.15248047 16.01314453 -23.15248047 16.01314453 -24.51953125 16.85546875 C-27 18 -27 18 -30 17 C-26.81463234 14.91339257 -23.62632668 12.83131664 -20.4375 10.75 C-19.54224609 10.16347656 -18.64699219 9.57695313 -17.72460938 8.97265625 C-3.96317591 0 -3.96317591 0 0 0 Z " fill="#742A23" transform="translate(142,38)"/>
<path d="M0 0 C0.33 0.66 0.66 1.32 1 2 C1.66 2 2.32 2 3 2 C4.26582219 5.86723631 4.1118765 9.73151262 4.0625 13.75 C4.05798828 14.44738281 4.05347656 15.14476562 4.04882812 15.86328125 C4.0371002 17.57555803 4.01916653 19.28779033 4 21 C2.68 20.67 1.36 20.34 0 20 C0 13.4 0 6.8 0 0 Z " fill="#8D3424" transform="translate(11,222)"/>
<path d="M0 0 C0 3.63306931 -1.07932067 4.97123644 -3 8 C-3.68096422 9.32608822 -4.35330586 10.65686601 -5 12 C-5.33 11.34 -5.66 10.68 -6 10 C-9.24716062 13.48783514 -9.24716062 13.48783514 -10 18 C-12 19.6875 -12 19.6875 -14 21 C-14.66 20.67 -15.32 20.34 -16 20 C-14.75836068 15.44732248 -12.25958607 13.06770394 -8.953125 9.9140625 C-5.76576601 6.79045069 -2.8974968 3.39068774 0 0 Z " fill="#803A32" transform="translate(75,87)"/>
<path d="M0 0 C0 6.82367872 -4.45745611 13.29854712 -9 18.125 C-9.66 18.74375 -10.32 19.3625 -11 20 C-12.11375 21.11375 -12.11375 21.11375 -13.25 22.25 C-13.8275 22.8275 -14.405 23.405 -15 24 C-11.59960206 14.99612941 -6.04841926 7.40841886 0 0 Z " fill="#7E3932" transform="translate(53,113)"/>
<path d="M0 0 C-3 2 -3 2 -6 2 C-5.67 3.65 -5.34 5.3 -5 7 C-8.33333333 7.66666667 -11.66666667 8.33333333 -15 9 C-15 7.35 -15 5.7 -15 4 C-12.87875034 3.13656176 -10.75286928 2.28449352 -8.625 1.4375 C-6.84996094 0.72400391 -6.84996094 0.72400391 -5.0390625 -0.00390625 C-2 -1 -2 -1 0 0 Z " fill="#80332A" transform="translate(184,22)"/>
<path d="M0 0 C-3.64641016 3.09421227 -7.71484283 4.81303755 -12.0625 6.6875 C-12.78244141 7.00783203 -13.50238281 7.32816406 -14.24414062 7.65820312 C-17.30786415 8.99235942 -19.62278005 10 -23 10 C-23 9.34 -23 8.68 -23 8 C-22.43410156 7.80664062 -21.86820312 7.61328125 -21.28515625 7.4140625 C-20.55167969 7.15367187 -19.81820313 6.89328125 -19.0625 6.625 C-17.96615234 6.24214844 -17.96615234 6.24214844 -16.84765625 5.8515625 C-14.81317884 5.14728587 -14.81317884 5.14728587 -14 3 C-9.07569129 0.43935947 -5.64788053 -0.3457886 0 0 Z " fill="#733A35" transform="translate(359,463)"/>
<path d="M0 0 C-1 3 -1 3 -3 4 C-3 4.99 -3 5.98 -3 7 C-4.1446875 7.2165625 -4.1446875 7.2165625 -5.3125 7.4375 C-8.08172908 7.9632594 -8.08172908 7.9632594 -11 9 C-10.60404157 7.51515588 -10.18249294 6.0371169 -9.75 4.5625 C-9.40195312 3.32693359 -9.40195312 3.32693359 -9.046875 2.06640625 C-8 0 -8 0 -6.03125 -0.8125 C-3.77957345 -1.02034707 -2.14230061 -0.68859662 0 0 Z " fill="#702B2B" transform="translate(402,433)"/>
<path d="M0 0 C0.66 0.33 1.32 0.66 2 1 C2.484375 3.1796875 2.484375 3.1796875 2.75 5.875 C2.89695312 7.20144531 2.89695312 7.20144531 3.046875 8.5546875 C3 11 3 11 1 14 C0.34 14 -0.32 14 -1 14 C-1 13.34 -1 12.68 -1 12 C-2.65 12.33 -4.3 12.66 -6 13 C-4.02 8.71 -2.04 4.42 0 0 Z " fill="#882F27" transform="translate(357,201)"/>
<path d="M0 0 C0.66 0 1.32 0 2 0 C5.59727921 6.88023305 8.76686274 13.55620912 11 21 C10.34 21 9.68 21 9 21 C8.7525 20.360625 8.505 19.72125 8.25 19.0625 C7.18437567 16.81258459 7.18437567 16.81258459 4.875 16.25 C4.25625 16.1675 3.6375 16.085 3 16 C2.67 16.66 2.34 17.32 2 18 C2.165 17.401875 2.33 16.80375 2.5 16.1875 C3.52318458 11.71106747 2.28588054 8.31148182 1 4 C0.65864073 2.66869885 0.32074044 1.33641852 0 0 Z " fill="#89352E" transform="translate(462,140)"/>
<path d="M0 0 C3.4288469 5.14327035 3.18222379 10.33901161 3.1875 16.375 C3.19974609 17.10460937 3.21199219 17.83421875 3.22460938 18.5859375 C3.2375925 23.43297115 2.53535264 27.40001066 1 32 C-0.13917218 28.58248347 -0.11338481 25.96512063 -0.09765625 22.36328125 C-0.09443359 21.06455078 -0.09121094 19.76582031 -0.08789062 18.42773438 C-0.07953531 17.05598892 -0.07107037 15.68424413 -0.0625 14.3125 C-0.05748335 12.92903805 -0.05292073 11.54557437 -0.04882812 10.16210938 C-0.03702529 6.77469605 -0.02056019 3.38736967 0 0 Z " fill="#722F28" transform="translate(308,310)"/>
<path d="M0 0 C8.53547405 3.24501806 16.33689499 8.08404584 24 13 C21 14 21 14 18.984375 13.14453125 C17.87835938 12.48517578 17.87835938 12.48517578 16.75 11.8125 C15.95851563 11.34972656 15.16703125 10.88695312 14.3515625 10.41015625 C13.57554687 9.94480469 12.79953125 9.47945312 12 9 C7.17129966 6.14529533 7.17129966 6.14529533 2 4 C2 3.34 2 2.68 2 2 C1.34 2 0.68 2 0 2 C0 1.34 0 0.68 0 0 Z " fill="#80423E" transform="translate(361,38)"/>
<path d="M0 0 C-0.99 1.485 -0.99 1.485 -2 3 C-2 4.32 -2 5.64 -2 7 C-3.65 7.33 -5.3 7.66 -7 8 C-6.67 6.35 -6.34 4.7 -6 3 C-7.5778125 3.99 -7.5778125 3.99 -9.1875 5 C-12.26623937 6.7771585 -14.38596328 7.43806506 -18 7 C-14.98568679 4.57714777 -11.94482561 2.87243634 -8.4375 1.25 C-7.01244141 0.57710937 -7.01244141 0.57710937 -5.55859375 -0.109375 C-3 -1 -3 -1 0 0 Z " fill="#863228" transform="translate(161,31)"/>
<path d="M0 0 C5.99230522 1.57490073 9.30546703 2.80028693 13 8 C15.12946603 8.86965506 15.12946603 8.86965506 17 9 C17 9.66 17 10.32 17 11 C17.66 11 18.32 11 19 11 C19 11.66 19 12.32 19 13 C20.32 13.66 21.64 14.32 23 15 C19.67445595 15 18.9902055 14.56307728 16.34765625 12.734375 C15.65349609 12.25613281 14.95933594 11.77789062 14.24414062 11.28515625 C13.52419922 10.77855469 12.80425781 10.27195312 12.0625 9.75 C11.34642578 9.25886719 10.63035156 8.76773437 9.89257812 8.26171875 C6.27964042 5.75040895 2.9812405 3.26924545 0 0 Z " fill="#673332" transform="translate(100,439)"/>
<path d="M0 0 C0.99 0 1.98 0 3 0 C3.84719072 4.7066151 3.83178043 8.32123509 3 13 C3.29044914 14.34332728 3.60955794 15.68225804 4 17 C3.67 17.33 3.34 17.66 3 18 C2.63239269 20.32817964 2.29758419 22.6618385 2 25 C1.67 25 1.34 25 1 25 C0.67 16.75 0.34 8.5 0 0 Z " fill="#913C2F" transform="translate(9,256)"/>
<path d="M0 0 C1.32 0 2.64 0 4 0 C4 2.97 4 5.94 4 9 C2.33388095 9.042721 0.66617115 9.04063832 -1 9 C-2 8 -2 8 -2.1875 5.0625 C-2 2 -2 2 0 0 Z " fill="#8E6768" transform="translate(488,248)"/>
<path d="M0 0 C0.5775 0.226875 1.155 0.45375 1.75 0.6875 C1.75 1.3475 1.75 2.0075 1.75 2.6875 C0.43 2.6875 -0.89 2.6875 -2.25 2.6875 C-2.12625 3.8321875 -2.12625 3.8321875 -2 5 C-2.25 7.6875 -2.25 7.6875 -4.0625 9.5625 C-4.784375 9.93375 -5.50625 10.305 -6.25 10.6875 C-7.24 10.3575 -8.23 10.0275 -9.25 9.6875 C-9.58 8.6975 -9.91 7.7075 -10.25 6.6875 C-9.59 6.6875 -8.93 6.6875 -8.25 6.6875 C-8.0025 6.089375 -7.755 5.49125 -7.5 4.875 C-5.66616692 1.66579211 -3.87690717 -0.53845933 0 0 Z " fill="#8F3127" transform="translate(74.25,94.3125)"/>
<path d="M0 0 C6.53235062 1.14316136 10.33563758 5.78246874 14 11 C14 11.99 14 12.98 14 14 C13.01 13.67 12.02 13.34 11 13 C10.67 11.35 10.34 9.7 10 8 C8.02 8 6.04 8 4 8 C3.67 6.02 3.34 4.04 3 2 C2.01 1.67 1.02 1.34 0 1 C0 0.67 0 0.34 0 0 Z " fill="#843531" transform="translate(422,85)"/>
<path d="M0 0 C-3.3509205 2.233947 -5.18819956 2.36274239 -9.0625 2.65625 C-11.31880605 2.9230571 -11.31880605 2.9230571 -14 5 C-16.33333333 5 -18.66666667 5 -21 5 C-23.01822402 5.60927518 -25.02416285 6.26480478 -27 7 C-27.66 7 -28.32 7 -29 7 C-29 6.34 -29 5.68 -29 5 C-26.45906145 4.35118552 -23.91731727 3.70587101 -21.375 3.0625 C-20.66214844 2.88009766 -19.94929687 2.69769531 -19.21484375 2.50976562 C-12.73399289 0.87468857 -6.72315311 -0.13446306 0 0 Z " fill="#7B3B36" transform="translate(214,15)"/>
<path d="M0 0 C0.66 0.33 1.32 0.66 2 1 C1.67 1.66 1.34 2.32 1 3 C0.34 3 -0.32 3 -1 3 C-1.33 5.31 -1.66 7.62 -2 10 C-2.33 9.34 -2.66 8.68 -3 8 C-3.33 8.66 -3.66 9.32 -4 10 C-4.66 10 -5.32 10 -6 10 C-6 10.66 -6 11.32 -6 12 C-6.99 12.33 -7.98 12.66 -9 13 C-8.25 8.25 -8.25 8.25 -6 6 C-6 5.34 -6 4.68 -6 4 C-4.03852126 2.61061923 -2.03833424 1.2739589 0 0 Z " fill="#7A3030" transform="translate(449,382)"/>
<path d="M0 0 C0.66 0 1.32 0 2 0 C2.14695312 0.54527344 2.29390625 1.09054687 2.4453125 1.65234375 C4.07419623 7.12876319 6.32160539 11.34965512 9.6953125 15.95703125 C11.00211059 18.00330491 11.56299924 19.62847147 12 22 C7.79294904 18.15163189 5.02062321 14.11364601 2.1875 9.1875 C1.78080078 8.49462891 1.37410156 7.80175781 0.95507812 7.08789062 C-0.03677289 5.39590948 -1.01935598 3.69850109 -2 2 C-1.34 1.34 -0.68 0.68 0 0 Z " fill="#692B29" transform="translate(36,362)"/>
<path d="M0 0 C0.66 0 1.32 0 2 0 C0.38297872 23.61702128 0.38297872 23.61702128 -3 27 C-4.28808432 23.13574703 -3.43538139 20.18313744 -2.625 16.3125 C-1.51773817 10.88384131 -0.63039892 5.50672001 0 0 Z " fill="#7E4A49" transform="translate(489,277)"/>
<path d="M0 0 C0.33 0 0.66 0 1 0 C3.26210179 10.05175874 1.90937725 19.23280493 -1 29 C-1.93423645 25.98968256 -2.04449911 25.13349732 -1 22 C-0.9551124 20.52151458 -0.96115188 19.04115643 -1 17.5625 C-1.06964719 11.66860672 -0.5641012 5.86262319 0 0 Z " fill="#6E2C29" transform="translate(285,164)"/>
<path d="M0 0 C0.66 0 1.32 0 2 0 C3.625 2.5 3.625 2.5 5 5 C5.99 4.01 6.98 3.02 8 2 C9 4 9 4 8.0625 7.125 C7.711875 8.07375 7.36125 9.0225 7 10 C7.66 10 8.32 10 9 10 C9 9.01 9 8.02 9 7 C9.66 7.33 10.32 7.66 11 8 C10.67 8.99 10.34 9.98 10 11 C9.34 11 8.68 11 8 11 C8.99 12.32 9.98 13.64 11 15 C10.01 15.33 9.02 15.66 8 16 C6.85121668 13.89739659 5.70588808 11.79303461 4.5625 9.6875 C4.23701172 9.09259766 3.91152344 8.49769531 3.57617188 7.88476562 C2.16262616 5.27626374 0.94051367 2.82154101 0 0 Z " fill="#7D3029" transform="translate(348,111)"/>
<path d="M0 0 C7.122363 0.48561566 15.47075994 2.84147844 20.859375 7.6640625 C21.23578125 8.10492188 21.6121875 8.54578125 22 9 C20.53984709 8.71758359 19.08190207 8.42373386 17.625 8.125 C16.81289063 7.96257812 16.00078125 7.80015625 15.1640625 7.6328125 C13 7 13 7 11 5 C8.42948089 4.14458599 5.83382414 3.47263076 3.21484375 2.78125 C1 2 1 2 0 0 Z " fill="#742E27" transform="translate(274,285)"/>
<path d="M0 0 C1.98 0.99 1.98 0.99 4 2 C4 3.65 4 5.3 4 7 C4.66 7 5.32 7 6 7 C6.13277344 7.63808594 6.26554687 8.27617187 6.40234375 8.93359375 C6.57894531 9.75988281 6.75554687 10.58617187 6.9375 11.4375 C7.11152344 12.26121094 7.28554688 13.08492188 7.46484375 13.93359375 C7.80752994 15.97661204 7.80752994 15.97661204 9 17 C9.14115161 19.67058851 9.04247107 22.32432238 9 25 C7.01306396 21.37568147 5.77178633 17.54056034 4.5 13.625 C4.28730469 12.97789062 4.07460938 12.33078125 3.85546875 11.6640625 C3.23520192 9.77662479 2.61756492 7.88832349 2 6 C1.3346821 3.99955092 0.66852339 1.99938013 0 0 Z " fill="#742A26" transform="translate(384,282)"/>
<path d="M0 0 C3 0 3 0 6 2 C1.9519972 5.70068895 -1.827419 8.95502612 -7 11 C-7.66 10.67 -8.32 10.34 -9 10 C-9 9.34 -9 8.68 -9 8 C-8.01 8 -7.02 8 -6 8 C-5.67 7.34 -5.34 6.68 -5 6 C-4.01 6 -3.02 6 -2 6 C-2 5.34 -2 4.68 -2 4 C-1.01 4 -0.02 4 1 4 C0.67 2.68 0.34 1.36 0 0 Z " fill="#7B2925" transform="translate(297,350)"/>
<path d="M0 0 C7.66742597 5.96583144 7.66742597 5.96583144 9 11 C7.68 10.67 6.36 10.34 5 10 C5 9.34 5 8.68 5 8 C4.01 8 3.02 8 2 8 C-0.1519437 4.77208445 -0.20086443 3.71599191 0 0 Z M0 8 C2 9 2 9 2 9 Z " fill="#752824" transform="translate(297,294)"/>
<path d="M0 0 C0.99 1.32 1.98 2.64 3 4 C2.34 4 1.68 4 1 4 C1.66 6.97 2.32 9.94 3 13 C2.01 13.33 1.02 13.66 0 14 C-2.24828052 9.50343896 -2.16682272 5.92127034 -2 1 C-1.34 0.67 -0.68 0.34 0 0 Z " fill="#913024" transform="translate(13,279)"/>
<path d="M0 0 C1.875 0.1875 1.875 0.1875 4 1 C5.375 3.3125 5.375 3.3125 6 6 C5.125 8.3125 5.125 8.3125 4 10 C1 9 1 9 -0.25 7.25 C-1.17574966 4.47275102 -0.77341204 2.78428335 0 0 Z " fill="#954539" transform="translate(28,334)"/>
<path d="M0 0 C1.4540625 0.0309375 1.4540625 0.0309375 2.9375 0.0625 C2.9375 0.7225 2.9375 1.3825 2.9375 2.0625 C0.66944205 2.76059445 -1.60116607 3.44621017 -3.875 4.125 C-4.51759766 4.32416016 -5.16019531 4.52332031 -5.82226562 4.72851562 C-10.72265625 6.17578125 -10.72265625 6.17578125 -14.0625 5.0625 C-12.0625 2.0625 -12.0625 2.0625 -10.15234375 1.5859375 C-9.44207031 1.53695313 -8.73179687 1.48796875 -8 1.4375 C-4.08228968 1.06438473 -3.66532713 0.07480259 0 0 Z " fill="#713331" transform="translate(331.0625,472.9375)"/>
<path d="M0 0 C0.99 0.33 1.98 0.66 3 1 C-1.95243178 5.68473277 -7.50235981 8.85792082 -14 11 C-14.99 10.67 -15.98 10.34 -17 10 C-15.85660156 9.44570312 -14.71320313 8.89140625 -13.53515625 8.3203125 C-12.04411537 7.58885848 -10.55323838 6.85707033 -9.0625 6.125 C-8.30775391 5.76019531 -7.55300781 5.39539063 -6.77539062 5.01953125 C-6.05673828 4.66503906 -5.33808594 4.31054688 -4.59765625 3.9453125 C-3.93258057 3.62062988 -3.26750488 3.29594727 -2.58227539 2.96142578 C-0.81950756 2.08247732 -0.81950756 2.08247732 0 0 Z " fill="#722C29" transform="translate(275,201)"/>
<path d="M0 0 C5.11775011 -0.37512304 7.35492444 1.17550521 11.26171875 4.265625 C13.5880869 6.58676535 14.39090101 8.8022303 15 12 C9.84780953 9.71013757 6.50804549 7.01609097 4 2 C1.9664052 0.73195434 1.9664052 0.73195434 0 0 Z " fill="#7F3932" transform="translate(382,52)"/>
<path d="M0 0 C6.27 0 12.54 0 19 0 C14.82326657 2.08836672 12.34788582 2.3695619 7.75 2.625 C6.48671875 2.69976562 5.2234375 2.77453125 3.921875 2.8515625 C2.95765625 2.90054687 1.9934375 2.94953125 1 3 C0.67 2.01 0.34 1.02 0 0 Z " fill="#783430" transform="translate(281,483)"/>
<path d="M0 0 C1.65 0 3.3 0 5 0 C5.33 0.99 5.66 1.98 6 3 C6.66 3.33 7.32 3.66 8 4 C8.309375 4.78375 8.61875 5.5675 8.9375 6.375 C9.98373709 8.95982105 10.92113535 10.2046169 13 12 C12.67 12.66 12.34 13.32 12 14 C10.29115995 12.37660195 8.62553283 10.70680947 7 9 C7 8.34 7 7.68 7 7 C6.01 6.67 5.02 6.34 4 6 C4 5.34 4 4.68 4 4 C3.34 4 2.68 4 2 4 C1.34 2.68 0.68 1.36 0 0 Z " fill="#6F2B27" transform="translate(67,408)"/>
<path d="M0 0 C7.75 -0.125 7.75 -0.125 10 1 C10 1.66 10 2.32 10 3 C3.25 6 3.25 6 1 6 C0.67 4.02 0.34 2.04 0 0 Z " fill="#772E2E" transform="translate(368,449)"/>
<path d="M0 0 C0.66 0.33 1.32 0.66 2 1 C1.2884375 2.175625 1.2884375 2.175625 0.5625 3.375 C-0.33898023 4.88948678 -1.21179485 6.4235897 -2 8 C-2.598125 7.79375 -3.19625 7.5875 -3.8125 7.375 C-6.28450846 6.69328085 -6.28450846 6.69328085 -9 9 C-9.99 8.67 -10.98 8.34 -12 8 C-11.21753906 7.50628906 -10.43507813 7.01257813 -9.62890625 6.50390625 C-8.61699219 5.86324219 -7.60507812 5.22257812 -6.5625 4.5625 C-5.55316406 3.92441406 -4.54382813 3.28632813 -3.50390625 2.62890625 C-1.15446165 1.22350458 -1.15446165 1.22350458 0 0 Z " fill="#762D27" transform="translate(358,405)"/>
<path d="M0 0 C0.66 0.33 1.32 0.66 2 1 C2 1.66 2 2.32 2 3 C0.02 3.66 -1.96 4.32 -4 5 C-4 6.32 -4 7.64 -4 9 C-5.65 9.33 -7.3 9.66 -9 10 C-7.41450777 5.15544041 -7.41450777 5.15544041 -6 3 C-2.8125 2.0625 -2.8125 2.0625 0 2 C0 1.34 0 0.68 0 0 Z " fill="#8F302A" transform="translate(60,109)"/>
<path d="M0 0 C3 1 3 1 4 3 C6.01669827 4.13350534 6.01669827 4.13350534 8 5 C4.28233332 6.23922223 2.56110463 5.57018942 -1.1875 4.5625 C-2.27417969 4.27503906 -3.36085937 3.98757813 -4.48046875 3.69140625 C-5.31191406 3.46324219 -6.14335937 3.23507812 -7 3 C-6.67 2.34 -6.34 1.68 -6 1 C-3.03 1.495 -3.03 1.495 0 2 C0 1.34 0 0.68 0 0 Z " fill="#783131" transform="translate(204,481)"/>
<path d="M0 0 C0.33 0 0.66 0 1 0 C1.25 7.625 1.25 7.625 -1 11 C-1.66 11 -2.32 11 -3 11 C-3 12.32 -3 13.64 -3 15 C-3.66 15 -4.32 15 -5 15 C-4.54705135 13.24859857 -4.08741252 11.49892656 -3.625 9.75 C-3.36976562 8.77546875 -3.11453125 7.8009375 -2.8515625 6.796875 C-2.10401491 4.34162697 -1.22876183 2.24382595 0 0 Z " fill="#813B36" transform="translate(26,161)"/>
<path d="M0 0 C0.33 0 0.66 0 1 0 C1.48929664 7.21712538 1.48929664 7.21712538 -0.875 11 C-3 13 -3 13 -5 13 C-5 13.66 -5 14.32 -5 15 C-5.66 14.67 -6.32 14.34 -7 14 C-4.69 9.38 -2.38 4.76 0 0 Z " fill="#712C28" transform="translate(387,368)"/>
<path d="M0 0 C0.33 0.66 0.66 1.32 1 2 C1.66 2 2.32 2 3 2 C3.433125 2.474375 3.86625 2.94875 4.3125 3.4375 C6.44693733 5.41383086 8.16307947 5.61663236 11 6 C11 7.32 11 8.64 11 10 C7.80375738 8.46162154 4.78394426 6.71133468 1.75 4.875 C0.85796875 4.33617188 -0.0340625 3.79734375 -0.953125 3.2421875 C-1.96632813 2.62730469 -1.96632813 2.62730469 -3 2 C-2.01 1.34 -1.02 0.68 0 0 Z " fill="#762E27" transform="translate(326,90)"/>
<path d="M0 0 C5.274432 0.53820735 9.33336702 1.57335085 14 4 C14.33 4.99 14.66 5.98 15 7 C9.76727367 5.36041242 4.84803364 3.61047965 0 1 C0 0.67 0 0.34 0 0 Z " fill="#6F2C2C" transform="translate(123,455)"/>
<path d="M0 0 C0.66 0.33 1.32 0.66 2 1 C1.01 1.33 0.02 1.66 -1 2 C-1 2.66 -1 3.32 -1 4 C-3.08203125 5.54296875 -3.08203125 5.54296875 -5.8125 7.1875 C-7.15248047 8.01314453 -7.15248047 8.01314453 -8.51953125 8.85546875 C-11 10 -11 10 -14 9 C-11.71439353 7.4693001 -9.42237333 5.95034956 -7.125 4.4375 C-6.14853516 3.78104492 -6.14853516 3.78104492 -5.15234375 3.11132812 C-3.47374503 2.01245164 -1.73976613 0.9992182 0 0 Z " fill="#753530" transform="translate(126,46)"/>
<path d="M0 0 C2.97 0.33 5.94 0.66 9 1 C9 1.66 9 2.32 9 3 C11.97 3.495 11.97 3.495 15 4 C15.33 4.99 15.66 5.98 16 7 C10.53262809 5.25192871 5.24175152 3.34205919 0 1 C0 0.67 0 0.34 0 0 Z " fill="#693333" transform="translate(151,468)"/>
<path d="M0 0 C0.99 0 1.98 0 3 0 C3.28571429 8.57142857 3.28571429 8.57142857 1 12 C0.01 11.67 -0.98 11.34 -2 11 C-1.67 10.113125 -1.34 9.22625 -1 8.3125 C-0.08777857 5.29076653 0.18330958 3.11626294 0 0 Z " fill="#773839" transform="translate(474,333)"/>
<path d="M0 0 C0.66 0 1.32 0 2 0 C1.67 1.98 1.34 3.96 1 6 C-1.64 6.66 -4.28 7.32 -7 8 C-6.34 7.01 -5.68 6.02 -5 5 C-4.34 5 -3.68 5 -3 5 C-2.690625 4.360625 -2.38125 3.72125 -2.0625 3.0625 C-1 1 -1 1 0 0 Z " fill="#6B2723" transform="translate(367,397)"/>
<path d="M0 0 C4.73536346 2.12274914 6.7149767 4.42995339 9 9 C9.66 9.33 10.32 9.66 11 10 C10.67 10.99 10.34 11.98 10 13 C8.51511559 11.40112446 7.03726855 9.79571095 5.5625 8.1875 C4.32693359 6.84751953 4.32693359 6.84751953 3.06640625 5.48046875 C1 3 1 3 0 0 Z " fill="#6D2C29" transform="translate(56,395)"/>
<path d="M0 0 C0.33 0.99 0.66 1.98 1 3 C0.01810813 4.67739862 -0.98133771 6.34467377 -2 8 C-1.67 8.66 -1.34 9.32 -1 10 C-2.65 9.67 -4.3 9.34 -6 9 C-4.68775452 5.06326356 -3.08089673 2.77280706 0 0 Z " fill="#812F2A" transform="translate(345,221)"/>
<path d="M0 0 C3.22269618 3.79817765 5.74520378 7.57391854 8 12 C7.67 12.66 7.34 13.32 7 14 C3.88418123 11.1957631 2.43960888 8.90750982 1 5 C0.34 4.34 -0.32 3.68 -1 3 C-0.67 2.01 -0.34 1.02 0 0 Z " fill="#7F423F" transform="translate(455,123)"/>
<path d="M0 0 C0.99 0.33 1.98 0.66 3 1 C3.12375 1.70125 3.2475 2.4025 3.375 3.125 C3.95647478 6.08810604 3.95647478 6.08810604 5.125 9.1875 C6 12 6 12 5 14 C4.15675328 12.421924 3.32576082 10.8372958 2.5 9.25 C2.0359375 8.36828125 1.571875 7.4865625 1.09375 6.578125 C0 4 0 4 0 0 Z " fill="#7D3735" transform="translate(17,320)"/>
<path d="M0 0 C0.33 1.32 0.66 2.64 1 4 C0.05125 4.433125 -0.8975 4.86625 -1.875 5.3125 C-5.20041937 6.79302201 -5.20041937 6.79302201 -7 10 C-8.32 9.67 -9.64 9.34 -11 9 C-7.37 6.03 -3.74 3.06 0 0 Z " fill="#712A28" transform="translate(339,227)"/>
<path d="M0 0 C0.99 0.33 1.98 0.66 3 1 C3 2.65 3 4.3 3 6 C2.01 6.495 2.01 6.495 1 7 C-1.125 6.0625 -1.125 6.0625 -3 5 C-1.125 1.125 -1.125 1.125 0 0 Z " fill="#8F3125" transform="translate(91,73)"/>
<path d="M0 0 C0.33 0 0.66 0 1 0 C1.36789096 4.29206125 0.48155943 6.50743487 -2 10 C-3.6875 11.8125 -3.6875 11.8125 -5 13 C-4.39254603 8.14036821 -2.27241033 4.2594482 0 0 Z " fill="#84403A" transform="translate(37,137)"/>
<path d="M0 0 C0.99 0.99 1.98 1.98 3 3 C3.66 2.67 4.32 2.34 5 2 C4.67 5.3 4.34 8.6 4 12 C0 4 0 4 0 0 Z " fill="#722B22" transform="translate(357,127)"/>
<path d="M0 0 C0.78375 0.33 1.5675 0.66 2.375 1 C4.84332497 2.11866511 4.84332497 2.11866511 7 2 C7 2.99 7 3.98 7 5 C4.03 4.67 1.06 4.34 -2 4 C-1.34 2.68 -0.68 1.36 0 0 Z " fill="#6A2321" transform="translate(151,464)"/>
<path d="M0 0 C0.66 2.97 1.32 5.94 2 9 C1.34 9 0.68 9 0 9 C-1.32 6.36 -2.64 3.72 -4 1 C-2 0 -2 0 0 0 Z " fill="#722F2D" transform="translate(38,362)"/>
<path d="M0 0 C3.07563891 1.53781946 3.70322574 3.91244223 5 7 C4.67 7.99 4.34 8.98 4 10 C3.01 9.67 2.02 9.34 1 9 C0.67 6.03 0.34 3.06 0 0 Z " fill="#7C3B35" transform="translate(27,339)"/>
<path d="M0 0 C0.66 0.33 1.32 0.66 2 1 C0 5 -2 9 -4 13 C-4.66 12.67 -5.32 12.34 -6 12 C-4.02 8.04 -2.04 4.08 0 0 Z " fill="#712F29" transform="translate(357,201)"/>
<path d="M0 0 C0.66 0.33 1.32 0.66 2 1 C2 1.99 2 2.98 2 4 C1.34 4 0.68 4 0 4 C0.33 4.99 0.66 5.98 1 7 C0.0625 9.1875 0.0625 9.1875 -1 11 C-1.66 11 -2.32 11 -3 11 C-2.69078116 9.54096742 -2.37751201 8.08279278 -2.0625 6.625 C-1.88847656 5.81289062 -1.71445312 5.00078125 -1.53515625 4.1640625 C-1 2 -1 2 0 0 Z " fill="#823B38" transform="translate(20,177)"/>
<path d="M0 0 C0.66 0.33 1.32 0.66 2 1 C-6.261959 6.74031891 -6.261959 6.74031891 -11 6 C-7.57874946 3.12614955 -4.16111563 1.54115394 0 0 Z " fill="#793833" transform="translate(154,32)"/>
<path d="M0 0 C0.66 0 1.32 0 2 0 C0.375 5.75 0.375 5.75 -3 8 C-3.33 6.68 -3.66 5.36 -4 4 C-2.68 3.34 -1.36 2.68 0 2 C0 1.34 0 0.68 0 0 Z " fill="#742D2B" transform="translate(281,193)"/>
<path d="M0 0 C0.33 0.66 0.66 1.32 1 2 C3.02463255 2.65213292 3.02463255 2.65213292 5 3 C5 4.32 5 5.64 5 7 C2.37812506 5.95125002 1.20628639 5.35068687 -0.25 2.875 C-0.4975 2.25625 -0.745 1.6375 -1 1 C-0.67 0.67 -0.34 0.34 0 0 Z " fill="#8C3C38" transform="translate(449,117)"/>
<path d="M0 0 C2.97 0.99 5.94 1.98 9 3 C8.67 3.99 8.34 4.98 8 6 C1.125 2.25 1.125 2.25 0 0 Z " fill="#632C2C" transform="translate(100,439)"/>
<path d="M0 0 C0.66 0 1.32 0 2 0 C1.40312566 3.34249629 0.26396123 5.46436342 -2 8 C-2.66 8 -3.32 8 -4 8 C-3.67 6.68 -3.34 5.36 -3 4 C-2.34 4 -1.68 4 -1 4 C-0.67 2.68 -0.34 1.36 0 0 Z " fill="#783A40" transform="translate(444,390)"/>
<path d="M0 0 C0.33 0.99 0.66 1.98 1 3 C-0.65 4.65 -2.3 6.3 -4 8 C-4.66 7.67 -5.32 7.34 -6 7 C-5 4 -5 4 -3 2.9375 C-2.34 2.628125 -1.68 2.31875 -1 2 C-0.67 1.34 -0.34 0.68 0 0 Z " fill="#782D2B" transform="translate(455,373)"/>
<path d="M0 0 C1.98 0.66 3.96 1.32 6 2 C6.33 4.31 6.66 6.62 7 9 C4.61327331 6.03716687 2.2646629 3.05729491 0 0 Z " fill="#6F2725" transform="translate(375,270)"/>
<path d="M0 0 C0.66 0.33 1.32 0.66 2 1 C2 2.98 2 4.96 2 7 C2.66 7.33 3.32 7.66 4 8 C3.34 8.66 2.68 9.32 2 10 C-1.125 3.375 -1.125 3.375 0 0 Z " fill="#89322A" transform="translate(482,198)"/>
<path d="M0 0 C2.31 0 4.62 0 7 0 C4.37801226 2.15377564 2.35595828 3.40072174 -1 4 C-0.67 2.68 -0.34 1.36 0 0 Z " fill="#784341" transform="translate(352,463)"/>
<path d="M0 0 C0.66 0.33 1.32 0.66 2 1 C0.35 3.64 -1.3 6.28 -3 9 C-3.66 8.01 -4.32 7.02 -5 6 C-4.34 6 -3.68 6 -3 6 C-2.87625 5.38125 -2.7525 4.7625 -2.625 4.125 C-2 2 -2 2 0 0 Z " fill="#703A3B" transform="translate(464,363)"/>
<path d="M0 0 C0.33 0.66 0.66 1.32 1 2 C0.06421005 4.35981813 -0.93347808 6.69631264 -2 9 C-2.66 9 -3.32 9 -4 9 C-3.35455571 5.51460083 -1.89865603 2.97180943 0 0 Z " fill="#793535" transform="translate(471,346)"/>
<path d="M0 0 C0.99 0 1.98 0 3 0 C2.34 2.64 1.68 5.28 1 8 C0.34 7.67 -0.32 7.34 -1 7 C-0.67 4.69 -0.34 2.38 0 0 Z " fill="#923C31" transform="translate(286,293)"/>
<path d="M0 0 C0.66 0.33 1.32 0.66 2 1 C1.67 1.99 1.34 2.98 1 4 C-0.65 4 -2.3 4 -4 4 C-4 4.66 -4 5.32 -4 6 C-4.66 5.67 -5.32 5.34 -6 5 C-3.375 1.125 -3.375 1.125 0 0 Z " fill="#833A31" transform="translate(83,80)"/>
<path d="M0 0 C2.475 0.99 2.475 0.99 5 2 C4.67 3.32 4.34 4.64 4 6 C2.68 5.67 1.36 5.34 0 5 C0 3.35 0 1.7 0 0 Z " fill="#7F2E29" transform="translate(313,473)"/>
<path d="M0 0 C0.66 0 1.32 0 2 0 C1.67 1.98 1.34 3.96 1 6 C0.34 6 -0.32 6 -1 6 C-1 6.99 -1 7.98 -1 9 C-1.66 9 -2.32 9 -3 9 C-2.01 6.03 -1.02 3.06 0 0 Z " fill="#844039" transform="translate(30,151)"/>
<path d="M0 0 C0.66 0 1.32 0 2 0 C2.66 1.98 3.32 3.96 4 6 C3.01 6.33 2.02 6.66 1 7 C-0.0625 5.1875 -0.0625 5.1875 -1 3 C-0.67 2.01 -0.34 1.02 0 0 Z " fill="#8D332E" transform="translate(181,473)"/>
<path d="M0 0 C0 1.65 0 3.3 0 5 C-1.32 5 -2.64 5 -4 5 C-4 3.68 -4 2.36 -4 1 C-2 0 -2 0 0 0 Z " fill="#6B2E2F" transform="translate(421,417)"/>
<path d="M0 0 C1.32 0.33 2.64 0.66 4 1 C4 2.32 4 3.64 4 5 C3.01 5 2.02 5 1 5 C0.67 3.35 0.34 1.7 0 0 Z " fill="#A18487" transform="translate(487,250)"/>
<path d="M0 0 C1.32 0 2.64 0 4 0 C4 1.98 4 3.96 4 6 C3.01 6 2.02 6 1 6 C0.67 4.02 0.34 2.04 0 0 Z " fill="#8E3527" transform="translate(27,160)"/>
</svg>
